<mxfile host="app.diagrams.net" agent="Mozilla/5.0 (Windows NT 10.0; Win64; x64) AppleWebKit/537.36 (KHTML, like Gecko) Chrome/137.0.0.0 Safari/537.36" version="27.1.6">
  <diagram name="Page-1" id="fI4dxMg9D0Cu_SLjgOot">
    <mxGraphModel dx="742" dy="414" grid="1" gridSize="10" guides="1" tooltips="1" connect="1" arrows="1" fold="1" page="1" pageScale="1" pageWidth="1920" pageHeight="1200" math="0" shadow="0">
      <root>
        <mxCell id="0" />
        <mxCell id="1" parent="0" />
        <mxCell id="QwclY09PCI-yQzbaNWVZ-6" value="" style="edgeStyle=orthogonalEdgeStyle;rounded=0;orthogonalLoop=1;jettySize=auto;html=1;endArrow=none;startFill=0;" edge="1" parent="1" source="QwclY09PCI-yQzbaNWVZ-1" target="QwclY09PCI-yQzbaNWVZ-5">
          <mxGeometry relative="1" as="geometry" />
        </mxCell>
        <mxCell id="QwclY09PCI-yQzbaNWVZ-17" value="" style="rounded=0;orthogonalLoop=1;jettySize=auto;html=1;endArrow=none;startFill=0;" edge="1" parent="1" source="QwclY09PCI-yQzbaNWVZ-1" target="QwclY09PCI-yQzbaNWVZ-16">
          <mxGeometry relative="1" as="geometry" />
        </mxCell>
        <mxCell id="QwclY09PCI-yQzbaNWVZ-21" style="rounded=0;orthogonalLoop=1;jettySize=auto;html=1;endArrow=none;startFill=0;" edge="1" parent="1" source="QwclY09PCI-yQzbaNWVZ-1" target="QwclY09PCI-yQzbaNWVZ-20">
          <mxGeometry relative="1" as="geometry" />
        </mxCell>
        <mxCell id="QwclY09PCI-yQzbaNWVZ-1" value="User" style="whiteSpace=wrap;html=1;align=center;" vertex="1" parent="1">
          <mxGeometry x="320" y="770" width="100" height="40" as="geometry" />
        </mxCell>
        <mxCell id="QwclY09PCI-yQzbaNWVZ-5" value="UserID" style="ellipse;whiteSpace=wrap;html=1;align=center;fontStyle=4;" vertex="1" parent="1">
          <mxGeometry x="320" y="700" width="100" height="40" as="geometry" />
        </mxCell>
        <mxCell id="QwclY09PCI-yQzbaNWVZ-9" value="FirstName" style="ellipse;whiteSpace=wrap;html=1;align=center;" vertex="1" parent="1">
          <mxGeometry x="180" y="730" width="100" height="40" as="geometry" />
        </mxCell>
        <mxCell id="QwclY09PCI-yQzbaNWVZ-13" value="" style="endArrow=none;html=1;rounded=0;entryX=0;entryY=0.5;entryDx=0;entryDy=0;exitX=0.993;exitY=0.631;exitDx=0;exitDy=0;exitPerimeter=0;" edge="1" parent="1" source="QwclY09PCI-yQzbaNWVZ-9" target="QwclY09PCI-yQzbaNWVZ-1">
          <mxGeometry width="50" height="50" relative="1" as="geometry">
            <mxPoint x="260" y="810" as="sourcePoint" />
            <mxPoint x="310" y="760" as="targetPoint" />
          </mxGeometry>
        </mxCell>
        <mxCell id="QwclY09PCI-yQzbaNWVZ-16" value="LastName" style="ellipse;whiteSpace=wrap;html=1;align=center;" vertex="1" parent="1">
          <mxGeometry x="180" y="790" width="100" height="40" as="geometry" />
        </mxCell>
        <mxCell id="QwclY09PCI-yQzbaNWVZ-19" style="rounded=0;orthogonalLoop=1;jettySize=auto;html=1;exitX=0.5;exitY=0;exitDx=0;exitDy=0;endArrow=none;startFill=0;" edge="1" parent="1" source="QwclY09PCI-yQzbaNWVZ-18" target="QwclY09PCI-yQzbaNWVZ-1">
          <mxGeometry relative="1" as="geometry" />
        </mxCell>
        <mxCell id="QwclY09PCI-yQzbaNWVZ-18" value="Email" style="ellipse;whiteSpace=wrap;html=1;align=center;" vertex="1" parent="1">
          <mxGeometry x="270" y="850" width="100" height="40" as="geometry" />
        </mxCell>
        <mxCell id="QwclY09PCI-yQzbaNWVZ-20" value="Phone" style="ellipse;whiteSpace=wrap;html=1;align=center;" vertex="1" parent="1">
          <mxGeometry x="400" y="850" width="100" height="40" as="geometry" />
        </mxCell>
        <mxCell id="QwclY09PCI-yQzbaNWVZ-22" value="PasswordHash" style="ellipse;whiteSpace=wrap;html=1;align=center;" vertex="1" parent="1">
          <mxGeometry x="480" y="800" width="100" height="40" as="geometry" />
        </mxCell>
      </root>
    </mxGraphModel>
  </diagram>
</mxfile>
